<?xml version="1.0"?><svg width="1118" height="894" xmlns="http://www.w3.org/2000/svg">
 <title>fire</title>
 <g>
  <title>Layer 1</title>
  <path d="m433.200012,163.800003l-0.200012,-0.300003l1,0l1,0l1,0.5l1,0.5l1.5,0.5l1.5,0.5l1,0.5l1,0.5l9.200012,5.699997c6.199982,3.866684 11.799988,7.800003 16.799988,11.800003c5,4 10.833344,10.333344 17.5,19c6.666687,8.666672 11.333344,16.166672 14,22.5c2.666687,6.333344 5.166687,14.333344 7.5,24c2.333344,9.666687 3.833344,17.666687 4.5,24c0.666687,6.333344 1.166687,11.333344 1.5,15l0.5,5.5l0.5,1l0.5,1l0,0.5l0,0.5l0,1.5l0,1.5l0.299988,0.5l0.200012,0.5l-0.200012,4c-0.199951,2.666687 0.700012,10.5 2.700012,23.5c2,13 4.5,23.166687 7.5,30.5c3,7.333344 6.600037,13.600037 10.799988,18.799988c4.133362,5.133362 9.866699,10.533356 17.200012,16.200012c7.333374,5.666687 14.333374,10.5 21,14.5c6.666687,4 14.166687,8 22.5,12c8.333374,4 13.100037,5.899994 14.299988,5.700012c1.133362,-0.133362 4.700012,-6.200012 10.700012,-18.200012c6,-12 10,-21 12,-27c2,-6 3.166687,-9.666656 3.5,-11l0.5,-2l0.5,-1.5l0.5,-1.5l0.299988,-1l0.200012,-1l0.200012,-1c0.200012,-0.666656 1.299988,-8.5 3.299988,-23.5c2,-15 4,-27.5 6,-37.5c2,-10 4.666687,-18.833313 8,-26.5c3.333374,-7.666656 6.333374,-13.666656 9,-18c2.666687,-4.333328 6.766724,-9.766663 12.299988,-16.300003l8.200012,-9.699997l0.200012,-0.300003l0.299988,-0.199997l0.299988,-0.199997l0.200012,-0.300003l0.200012,-0.300003l0.299988,-0.199997l0.299988,-0.199997l0.200012,-0.300003l1,-0.5l1,-0.5l0.200012,-0.300003l0.299988,-0.199997l0.299988,-1l0.200012,-1l1,0l1,0l-0.200012,1l-0.299988,1l-0.299988,0.199997l-0.200012,0.300003l-0.200012,0.300003l-0.299988,0.199997l-0.5,1l-0.5,1l-6,14.5c-4,9.666672 -7.5,20.666687 -10.5,33c-3,12.333344 -4.666626,28.166687 -5,47.5c-0.333313,19.333344 -0.5,40 -0.5,62l0,33l-0.299988,0l-0.200012,0l-0.200012,-1l-0.299988,-1l-0.299988,0.200012l-0.200012,0.299988l-0.200012,0.299988l-0.299988,0.200012l-0.299988,-0.200012c-0.133362,-0.199951 -0.599976,-0.733337 -1.400024,-1.599976c-0.866638,-0.800018 -4.06665,-1.033325 -9.599976,-0.700012c-5.466675,0.333344 -8.200012,1 -8.200012,2c0,1 -0.333313,1.56665 -1,1.700012c-0.666626,0.199982 -1.266663,1.066681 -1.799988,2.599976c-0.466675,1.466705 -1.133362,2.366699 -2,2.700012c-0.799988,0.333344 -2.133362,2.666687 -4,7l-2.700012,6.5l-0.5,1.5l-0.5,1.5l-0.299988,0.200012l-0.200012,0.299988l-0.200012,0.299988l-0.299988,0.200012l-0.299988,0l-0.200012,0l-0.200012,-3c-0.199951,-2 -0.733337,-3.266663 -1.599976,-3.799988l-1.200012,-0.700012l-0.200012,-0.299988l-0.299988,-0.200012l-0.299988,1l-0.200012,1l-1,0.200012l-1,0.299988l-1,0.5c-0.666626,0.333344 -2.733276,2.93335 -6.200012,7.799988c-3.533264,4.800049 -7.466614,9.533356 -11.799988,14.200012c-4.333313,4.666687 -9,8.666687 -14,12c-5,3.333344 -12.06665,1.266693 -21.200012,-6.200012c-9.199951,-7.533295 -15.966614,-12.06665 -20.299988,-13.599976c-4.333313,-1.466675 -6.56665,-1.866669 -6.700012,-1.200012c-0.199951,0.666687 -4.399963,1 -12.599976,1c-8.133362,0 -12.366638,0.266693 -12.700012,0.799988l-0.5,0.700012l-0.200012,-0.299988l-0.299988,-0.200012l-0.5,1l-0.5,1l-0.299988,-0.200012l-0.200012,-0.299988l-1,-0.299988l-1,-0.200012l-0.200012,1l-0.299988,1l-0.299988,0.200012l-0.200012,0.299988l0.200012,0.299988l0.299988,0.200012l0.5,1.5l0.5,1.5l5.700012,6.200012c3.866638,4.199982 5.866638,6.400024 6,6.599976l0.299988,0.200012l0.299988,0.200012l0.200012,0.299988l0.200012,0.299988l0.299988,0.200012l0.299988,1l0.200012,1l1,0.200012l1,0.299988l0.200012,0.299988l0.299988,0.200012l0.299988,0.200012l0.200012,0.299988l0.200012,0.299988l0.299988,0.200012l0.299988,1l0.200012,1l-1,-0.200012l-1,-0.299988l-0.200012,-0.299988l-0.299988,-0.200012l-0.299988,-0.200012l-0.200012,-0.299988l-0.200012,-0.299988l-0.299988,-0.200012l-0.299988,-0.200012l-0.200012,-0.299988l-0.200012,-0.299988l-0.299988,-0.200012l-0.299988,-0.200012l-0.200012,-0.299988l-1,-0.5c-0.666626,-0.333313 -2,-0.93335 -4,-1.799988l-3,-1.200012l-0.200012,-1l-0.299988,-1l-0.299988,0.200012l-0.200012,0.299988l-0.200012,0.299988l-0.299988,0.200012l0,2c0,1.333344 -0.099976,2.333344 -0.299988,3l-0.200012,1l-1,-0.200012l-1,-0.299988l0,-0.299988l0,-0.200012l0,-0.200012l0,-0.299988l-1,-0.5l-1,-0.5l-0.200012,-0.299988l-0.299988,-0.200012l-0.299988,-0.200012l-0.200012,-0.299988l-0.200012,-0.299988l-0.299988,-0.200012l-0.299988,-0.200012l-0.200012,-0.299988l-0.200012,-0.299988l-0.299988,-0.200012l-0.299988,-0.200012l-0.200012,-0.299988l-0.200012,-0.299988l-0.299988,-0.200012l-0.299988,-0.200012l-0.200012,-0.299988l-0.200012,-0.299988c-0.199951,-0.133362 -2.06665,-1.599976 -5.599976,-4.400024c-3.466675,-2.866638 -8.366669,-7.799988 -14.700012,-14.799988c-6.333313,-7 -11.899963,-14.06665 -16.700012,-21.200012c-4.866638,-7.199951 -8.466644,-14.133301 -10.799988,-20.799988c-2.333313,-6.666656 -3.666656,-13.5 -4,-20.5c-0.333313,-7 0,-12.666656 1,-17c1,-4.333313 4.333344,-14.5 10,-30.5c5.666687,-16 9.833344,-28.5 12.5,-37.5c2.666687,-9 4.166687,-18.166656 4.5,-27.5c0.333344,-9.333313 -0.166656,-17.5 -1.5,-24.5c-1.333313,-7 -3.166656,-13.666656 -5.5,-20c-2.333313,-6.333328 -6.06665,-14.099991 -11.200012,-23.300003c-5.199951,-9.133316 -8.733337,-14.933334 -10.599976,-17.399994c-1.800018,-2.53334 -5.466675,-6.866669 -11,-13l-8.200012,-9.300003l-0.200012,-0.300003l-0.299988,-0.199997l-0.299988,-0.199997l-0.200012,-0.300003l-0.200012,-0.300003l-0.299988,-0.199997l-0.299988,-0.199997l-0.200012,-0.300003l-0.200012,-0.300003l-0.299988,-0.199997l-0.299988,-0.199997l-0.200012,-0.300003l-0.200012,-0.300003l-0.299988,-0.199997l-0.299988,-0.199997l-0.200012,-0.300003l-0.200012,-0.300003l-0.299988,-0.199997l-0.299988,-0.199997l-0.200012,-0.300003l-0.200012,-0.300003l-0.299988,-0.199997l-0.299988,-0.199997z" stroke-width="0.5px" stroke="#0000ff" fill-rule="evenodd" fill="#0000ff" id="svg_3"/>
  <path d="m629.200012,436l0.299988,-1l0.299988,0.200012l0.200012,0.299988l1.200012,0.700012c0.866638,0.533325 1.400024,1.799988 1.599976,3.799988l0.200012,3l-4.799988,12.5c-3.133362,8.333344 -8.533325,20.5 -16.200012,36.5c-7.666626,16 -12.666626,27.833374 -15,35.5c-2.333313,7.666687 -4.166626,15.833374 -5.5,24.5c-1.333313,8.666687 -2.099976,15.333374 -2.299988,20l-0.200012,7l-1,-0.200012l-1,-0.299988l-0.200012,-0.299988l-0.299988,-0.200012l-0.299988,-0.200012l-0.200012,-0.299988l-0.200012,-0.299988l-0.299988,-0.200012l-0.299988,-0.200012l-0.200012,-0.299988l-0.200012,-0.299988l-0.299988,-0.200012l-0.299988,-0.200012l-0.200012,-0.299988l-0.200012,-0.299988l-0.299988,-0.200012l-0.299988,-0.200012l-0.200012,-0.299988l-0.200012,-0.299988l-0.299988,-0.200012l-0.299988,-0.200012c-0.133362,-0.199951 -2.466675,-2.733337 -7,-7.599976c-4.466675,-4.799988 -7.200012,-9.200012 -8.200012,-13.200012l-1.5,-6l-0.299988,0l-0.200012,0l-0.200012,-2c-0.199951,-1.333313 -1.133301,-4.833313 -2.799988,-10.5c-1.666626,-5.666626 -4.5,-12.833313 -8.5,-21.5c-4,-8.666656 -8.233276,-16.333313 -12.700012,-23l-6.799988,-10l-0.200012,-0.5c-0.199951,-0.333313 -0.399963,-0.5 -0.599976,-0.5l-0.200012,0l-0.200012,-0.5c-0.199951,-0.333313 -0.399963,-0.5 -0.599976,-0.5l-0.200012,0l-0.200012,-0.5c-0.199951,-0.333313 -0.399963,-0.5 -0.599976,-0.5l-0.200012,0l-0.200012,-0.5c-0.199951,-0.333313 -0.466614,-0.833313 -0.799988,-1.5l-0.5,-1l-0.299988,-0.200012l-0.200012,-0.299988l-0.200012,-0.299988l-0.299988,-0.200012l-0.299988,-0.200012c-0.133362,-0.199951 -2.133362,-2.399994 -6,-6.599976l-5.700012,-6.200012l-0.5,-1.5l-0.5,-1.5l-0.299988,-0.200012l-0.200012,-0.299988l0.200012,-0.299988l0.299988,-0.200012l0.299988,-1l0.200012,-1l1,0.200012l1,0.299988l0.200012,0.299988l0.299988,0.200012l0.5,-1l0.5,-1l0.299988,0.200012l0.200012,0.299988l0.5,-0.700012c0.333374,-0.533295 4.56665,-0.799988 12.700012,-0.799988c8.200012,0 12.400024,-0.333313 12.599976,-1c0.133362,-0.666656 2.366699,-0.266663 6.700012,1.200012c4.333374,1.533325 11.100037,6.066681 20.299988,13.599976c9.133362,7.466705 16.200012,9.533356 21.200012,6.200012c5,-3.333313 9.666687,-7.333313 14,-12c4.333374,-4.666656 8.266724,-9.399963 11.799988,-14.200012c3.466736,-4.866638 5.533386,-7.466644 6.200012,-7.799988l1,-0.5l1,-0.299988l1,-0.200012l0.200012,-1z" stroke-width="0.5px" stroke="#0000ff" fill-rule="evenodd" fill="#0000ff" id="svg_4"/>
  <path d="m599,51l0.5,-1l-1,6c-0.666626,4 -2.833313,12.833344 -6.5,26.5c-3.666626,13.666672 -6.5,28 -8.5,43c-2,15 -2.666626,26.833344 -2,35.5c0.666687,8.666672 2.166687,16.166672 4.5,22.5c2.333374,6.333344 4.733337,10.766663 7.200012,13.300003c2.533325,2.46666 4.966675,3.699997 7.299988,3.699997c2.333374,0 3.766724,-0.566666 4.299988,-1.699997c0.466736,-1.199997 0.533386,-6.96666 0.200012,-17.300003c-0.333313,-10.333328 -1,-18.333328 -2,-24c-1,-5.666656 -1.666626,-9.833328 -2,-12.5l-0.5,-4l-0.299988,-0.199997l-0.200012,-0.300003l1,-0.300003l1,-0.199997l0.200012,1l0.299988,1l0.5,1l0.5,1l0.299988,0.199997l0.200012,0.300003l0.200012,0.300003l0.299988,0.199997l0.299988,0.199997l0.200012,0.300003l0.200012,0.300003l0.299988,0.199997l10.5,24c7,16 12,29.5 15,40.5c3,11 5.333374,21.333344 7,31c1.666687,9.666672 2.333374,24.833344 2,45.5c-0.333313,20.666687 -1.666626,37.833344 -4,51.5c-2.333313,13.666687 -3.599976,20.56665 -3.799988,20.700012c-0.133362,0.199982 -0.200012,0.400024 -0.200012,0.599976l0,0.200012l-0.200012,1.5l-0.299988,1.5l-0.5,1.5l-0.5,1.5l-0.5,1.5c-0.333313,1 -1.166626,3.833344 -2.5,8.5c-1.333313,4.666687 -3.766663,11.333344 -7.299988,20c-3.466675,8.666687 -5.866638,12.93335 -7.200012,12.799988c-1.333313,-0.199951 -5.333313,-1.633301 -12,-4.299988c-6.666626,-2.666656 -13.833313,-6.333313 -21.5,-11c-7.666626,-4.666656 -14.43335,-9.43335 -20.299988,-14.299988c-5.799988,-4.800018 -11.266663,-10.466675 -16.400024,-17c-5.199951,-6.466675 -9.199951,-12.266663 -12,-17.400024c-2.866638,-5.199982 -5.866638,-13.799988 -9,-25.799988l-4.799988,-18l-0.200012,-5c-0.199951,-3.333313 -0.133301,-15.166656 0.200012,-35.5c0.333374,-20.333328 1.166687,-36.333328 2.5,-48l2,-17.5l0.5,-1.5l0.5,-1.5l0.5,-2l0.5,-2l0.5,2.5l0.5,2.5l6,26c4,17.333344 7.166687,29.5 9.5,36.5c2.333374,7 5.266724,13.566681 8.799988,19.700012c3.466736,6.200012 7.200012,11.466675 11.200012,15.799988c4,4.333344 7.666687,8.166687 11,11.5c3.333374,3.333344 5.333374,5.166687 6,5.5l1,0.5l0.200012,0.299988l0.299988,0.200012l0.299988,0.200012l0.200012,0.299988l1,0.5l1,0.5l1,0.5l1,0.5l0.200012,0.299988l0.299988,0.200012l0.299988,0.200012l0.200012,0.299988l1,0.299988l1,0.200012l0,-1l0,-1l-1,-0.200012l-1,-0.299988l-0.200012,-0.299988l-0.299988,-0.200012l-0.299988,-0.200012l-0.200012,-0.299988l-0.200012,-0.299988l-0.299988,-0.200012l-0.5,-1l-0.5,-1l-0.299988,-0.200012l-0.200012,-0.299988l-0.200012,-0.299988c-0.199951,-0.133331 -0.866638,-1.133331 -2,-3c-1.199951,-1.799988 -3.966614,-6.700012 -8.299988,-14.700012c-4.333313,-8 -8.233276,-17.099976 -11.700012,-27.299988c-3.533264,-10.133331 -5.966614,-22.366669 -7.299988,-36.700012c-1.333313,-14.333328 -1.333313,-27.666656 0,-40c1.333374,-12.333328 4.166687,-25.166656 8.5,-38.5c4.333374,-13.333328 11.166687,-31.333328 20.5,-54l14,-34l2,-3c1.333374,-2 2.166687,-3.333328 2.5,-4z" stroke-width="0.5px" stroke="#0000ff" fill-rule="evenodd" fill="#0000ff" id="svg_5"/>
  <path d="m672,675l1,0l-6.799988,9.5c-4.466675,6.333374 -9.266663,12.100037 -14.400024,17.299988c-5.199951,5.133362 -10.06665,9.800049 -14.599976,14c-4.466675,4.133362 -8.533325,9.033386 -12.200012,14.700012c-3.666626,5.666687 -7.399963,10.766724 -11.200012,15.299988c-3.866638,4.466736 -8.966614,9.033386 -15.299988,13.700012c-6.333313,4.666687 -11,7.766724 -14,9.299988c-3,1.466736 -4.5,2.533386 -4.5,3.200012c0,0.666687 -0.5,1.06665 -1.5,1.200012l-1.5,0.299988l-1,0.5l-1,0.5l-1.5,0.5l-1.5,0.5l-1.5,0.5l-1.5,0.5l0,0.299988l0,0.200012l-1.5,0.200012c-1,0.200012 -3.5,0.799988 -7.5,1.799988c-4,1 -13,1.666687 -27,2c-14,0.333374 -25.333313,-0.5 -34,-2.5c-8.666656,-2 -15.5,-4.166626 -20.5,-6.5c-5,-2.333313 -12,-6.166626 -21,-11.5c-9,-5.333313 -17.899963,-12.43335 -26.700012,-21.299988c-8.866638,-8.799988 -15.799988,-16.866638 -20.799988,-24.200012l-7.5,-11l-0.5,-1l-0.5,-1l-0.5,-1.5l-0.5,-1.5l-0.299988,-0.200012l-0.200012,-0.299988l-0.200012,-0.299988l-0.299988,-0.200012l-0.299988,-1l-0.200012,-1l1,0l1,0l0.200012,1l0.299988,1l0.299988,0.200012l0.200012,0.299988l0.200012,0.299988l0.299988,0.200012l0.299988,0.200012l0.200012,0.299988l0.200012,0.299988l0.299988,0.200012l0.299988,0.200012l0.200012,0.299988l0.200012,0.299988l0.299988,0.200012l1.299988,0.799988c0.800049,0.466736 3.033356,0.866699 6.700012,1.200012c3.666687,0.333374 32,0.5 85,0.5l79.5,0l2,-0.299988l2,-0.200012l1.200012,0c0.866638,0 2.066711,0.333374 3.599976,1c1.466736,0.666687 2.200012,1.333374 2.200012,2c0,0.666687 1.833374,1.400024 5.5,2.200012c3.666687,0.866638 8.166687,1.066711 13.5,0.599976c5.333374,-0.533264 8.166687,-1.199951 8.5,-2c0.333374,-0.866638 3.166687,-2.466614 8.5,-4.799988c5.333374,-2.333313 9.06665,-3.399963 11.200012,-3.200012c2.200012,0.133362 5.200012,-2.799988 9,-8.799988c3.866638,-6 8.466675,-9.06665 13.799988,-9.200012c5.333374,-0.199951 8.833374,-1.199951 10.5,-3c1.666687,-1.866638 2.833374,-2.799988 3.5,-2.799988z" stroke-width="0.5px" stroke="#0000ff" fill-rule="evenodd" fill="#0000ff" id="svg_6"/>
  <path d="m412.5,395.5l0,-1.5l0.299988,0.200012l0.200012,0.299988l0.200012,0.299988l0.299988,0.200012l0.5,2.5l0.5,2.5l8.5,17c5.666687,11.333344 9.399994,18.266693 11.200012,20.799988c1.866638,2.466705 3.133331,3.800049 3.799988,4c0.666687,0.133362 1.5,1.200012 2.5,3.200012c1,2 2.56665,3.666687 4.700012,5c2.199982,1.333344 3.400024,2.333344 3.599976,3c0.133362,0.666687 5.366699,3.399994 15.700012,8.200012c10.333344,4.866638 19.666687,8.466675 28,10.799988c8.333344,2.333344 13.833344,3.666687 16.5,4l4,0.5l2,0.299988l2,0.200012l0,0.200012l0,0.299988l1,0.299988l1,0.200012l-0.200012,-1c-0.199951,-0.666656 -0.133301,-1.666656 0.200012,-3l0.5,-2l0.299988,-0.200012l0.200012,-0.299988l0.200012,-0.299988l0.299988,-0.200012l0.299988,1l0.200012,1l3,1.200012c2,0.866638 3.333374,1.466675 4,1.799988l1,0.5l1,0.299988l1,0.200012l0,0.200012c0,0.199982 0.166687,0.400024 0.5,0.599976l0.5,0.200012l0,0.200012c0,0.199982 0.166687,0.400024 0.5,0.599976l0.5,0.200012l0,0.200012c0,0.199982 0.166687,0.400024 0.5,0.599976l0.5,0.200012l6.799988,10c4.466736,6.666687 8.700012,14.333344 12.700012,23c4,8.666687 6.833374,15.833374 8.5,21.5c1.666687,5.666687 2.600037,9.166687 2.799988,10.5l0.200012,2l0,2.5l0,2.5l-1.5,-0.200012l-1.5,-0.299988l-0.200012,-0.299988l-0.299988,-0.200012l-0.299988,-0.200012l-0.200012,-0.299988l-0.200012,-0.299988l-0.299988,-0.200012l-0.299988,-0.200012l-0.200012,-0.299988l-0.200012,-0.299988l-0.299988,-0.200012l-0.299988,0l-0.200012,0l-0.200012,-0.5l-0.299988,-0.5l-0.299988,-0.200012l-0.200012,-0.299988l-0.200012,-0.299988c-0.199951,-0.133362 -4.733337,-3.933289 -13.599976,-11.400024c-8.799988,-7.533264 -19.366638,-16.133301 -31.700012,-25.799988l-18.5,-14.5l-1,-0.5l-1,-0.5l-0.200012,-0.299988l-0.299988,-0.200012l-0.299988,-0.200012l-0.200012,-0.299988l-0.200012,-0.299988l-0.299988,-0.200012l-0.299988,-0.200012l-0.200012,-0.299988l-1,-0.5l-1,-0.5l-1,-0.299988l-1,-0.200012l0.200012,1l0.299988,1l0.5,1l0.5,1l0.5,1l0.5,1l0.299988,0.200012l0.200012,0.299988l0.200012,0.299988l0.299988,0.200012l5,11.5c3.333344,7.666687 5.166687,11.833374 5.5,12.5l0.5,1l0.5,1l0.5,1l0.5,1l0.5,1l0,1.5l0,1.5l-0.299988,0.200012l-0.200012,0.299988l-0.5,0l-0.5,0l-1.5,-0.5l-1.5,-0.5l-1,-0.5l-1,-0.5l-1,-0.5c-0.666656,-0.333313 -3.5,-1.833313 -8.5,-4.5c-5,-2.666626 -9.5,-5.666626 -13.5,-9c-4,-3.333313 -7.333313,-6.833313 -10,-10.5c-2.666656,-3.666656 -6,-9 -10,-16l-6,-10.5l-0.200012,-0.299988l-0.299988,-0.200012l-0.5,-1l-0.5,-1l-0.5,-1l-0.5,-1l-0.5,-1l-0.5,-1l-0.299988,-0.200012l-0.200012,-0.299988l-0.200012,-0.299988l-0.299988,-0.200012l0,4l0,4l6,16.5c4,11 8.166687,20.833374 12.5,29.5c4.333344,8.666687 10,18 17,28c7,10 15.166687,21 24.5,33c9.333344,12 14.833374,19.5 16.5,22.5c1.666687,3 2.666687,4.833374 3,5.5l0.5,1l0.299988,0.200012l0.200012,0.299988l0.200012,0.299988l0.299988,0.200012l0.5,1l0.5,1l0.299988,1l0.200012,1l-1,0l-1,0l0,-1l0,-1l-2,-0.200012c-1.333313,-0.199951 -2.266663,-0.06665 -2.799988,0.400024c-0.466675,0.533325 -4.933289,1.066711 -13.400024,1.599976c-8.533295,0.466736 -13.133301,1.133362 -13.799988,2l-1,1.200012l-0.200012,0l-0.299988,0l-0.5,-2.5c-0.333313,-1.666626 -0.833313,-3.666626 -1.5,-6c-0.666656,-2.333313 -2.5,-8 -5.5,-17c-3,-9 -12.166656,-31.333313 -27.5,-67c-15.333313,-35.666656 -25.233307,-60.666656 -29.700012,-75l-6.799988,-21.5l-0.200012,-2.5l-0.299988,-2.5l-0.5,-2c-0.333313,-1.333313 -1.166656,-6.5 -2.5,-15.5l-2,-13.5l0,-1.5z" stroke-width="0.5px" stroke="#0000ff" fill-rule="evenodd" fill="#0000ff" id="svg_7"/>
  <path d="m666.200012,418.799988l0.299988,0.200012l0.299988,-0.200012l0.200012,-0.299988l0.200012,-0.299988l0.299988,-0.200012l0.299988,1l0.200012,1l-3.200012,19c-2.199951,12.666687 -5.133301,23.833344 -8.799988,33.5c-3.666626,9.666687 -7.833313,19.833344 -12.5,30.5c-4.666626,10.666687 -7.166626,18 -7.5,22c-0.333313,4 -0.599976,7 -0.799988,9l-0.200012,3l-1,0.200012l-1,0.299988l0.200012,0.299988l0.299988,0.200012l0.5,1l0.5,1l0.299988,-0.200012l0.200012,-0.299988l0.200012,-0.299988l0.299988,-0.200012l0.5,1l0.5,1l0.299988,-0.200012l0.200012,-0.299988l2,0c1.333374,0 2,0.100037 2,0.299988l0,0.200012l0,0.5l0,0.5l-1,0.200012c-0.666626,0.200012 -0.666626,0.400024 0,0.599976l1,0.200012l-1.200012,13c-0.866638,8.666687 -1.133301,15 -0.799988,19l0.5,6l0.299988,0l0.200012,0l0.5,7.200012c0.333374,4.866638 0.666687,7.866638 1,9c0.333374,1.200012 0.833374,1.799988 1.5,1.799988c0.666687,0 0.833374,0.400024 0.5,1.200012c-0.333313,0.866638 -0.333313,2.200012 0,4c0.333374,1.866638 0.900024,2.966675 1.700012,3.299988c0.866638,0.333374 1.466675,0.833374 1.799988,1.5l0.5,1l0.299988,0.200012l0.200012,0.299988l0.200012,0.299988l0.299988,0.200012l0.299988,0.200012l0.200012,0.299988l0.200012,0.299988l0.299988,0.200012l0.299988,1l0.200012,1l-1.5,0.200012l-1.5,0.299988l-0.200012,0.299988l-0.299988,0.200012l-0.299988,-0.200012l-0.200012,-0.299988l-0.200012,-0.299988l-0.299988,-0.200012l-0.299988,-0.200012l-0.200012,-0.299988l-3.5,0c-2.333313,0 -5.666626,0.5 -10,1.5l-6.5,1.5l-1,0.299988l-1,0.200012l-0.200012,1l-0.299988,1l-0.299988,2l-0.200012,2l-0.200012,0l-0.299988,0l-0.5,-1l-0.5,-1l-0.299988,-0.200012l-0.200012,-0.299988l-0.200012,-0.299988l-0.299988,-0.200012l-0.299988,-0.200012c-0.133362,-0.199951 -1.599976,-2.199951 -4.400024,-6l-4.299988,-5.799988l-0.299988,-0.200012l-0.200012,-0.299988l-0.200012,-0.299988l-0.299988,-0.200012l-0.299988,-0.200012l-0.200012,-0.299988l-0.200012,-0.299988l-0.299988,-0.200012l-0.299988,-0.200012l-0.200012,-0.299988l-0.200012,-0.299988l-0.299988,-0.200012l-0.299988,-0.200012l-0.200012,-0.299988l-0.200012,-0.299988l-0.299988,-0.200012l-0.5,1l-0.5,1l-1.299988,4.5c-0.799988,3 -1.533325,4.5 -2.200012,4.5l-1,0l-0.200012,1.5l-0.299988,1.5l-0.5,-1c-0.333313,-0.666626 -0.93335,-1.399963 -1.799988,-2.200012c-0.799988,-0.866638 -2.200012,-1.466614 -4.200012,-1.799988c-2,-0.333313 -2.833313,-0.06665 -2.5,0.799988c0.333374,0.800049 -0.833313,0.800049 -3.5,0c-2.666626,-0.866638 -11.166626,-1.633301 -25.5,-2.299988c-14.333313,-0.666626 -23.166626,-0.766663 -26.5,-0.299988l-5,0.799988l-0.200012,-2c-0.199951,-1.333313 -1.966614,-7.833313 -5.299988,-19.5c-3.333313,-11.666626 -5.43335,-19.666626 -6.299988,-24l-1.200012,-6.5l1,-0.200012l1,-0.299988l17,-1.5c11.333374,-1 17.333374,-1.666626 18,-2l1,-0.5l-0.5,-1.299988c-0.333313,-0.799988 -0.166626,-1.200012 0.5,-1.200012c0.666687,0 1,0.5 1,1.5c0,1 0.333374,1.43335 1,1.299988l1,-0.299988l1,-0.5l1,-0.5l-0.200012,-0.299988l-0.299988,-0.200012l-0.5,-1l-0.5,-1l-0.299988,-1.5l-0.200012,-1.5l0.200012,0l0.299988,0l0.299988,0.200012l0.200012,0.299988l0.200012,0.299988l0.299988,0.200012l0.299988,0.200012l0.200012,0.299988l0.200012,0.299988l0.299988,0.200012l0.299988,0.200012l0.200012,0.299988l1.5,0.299988l1.5,0.200012l0,-2.5l0,-2.5l0.200012,0l0.299988,0l1.5,6c1,4 3.733337,8.400024 8.200012,13.200012c4.533325,4.866638 6.866638,7.400024 7,7.599976l0.299988,0.200012l0.299988,0.200012l0.200012,0.299988l0.200012,0.299988l0.299988,0.200012l0.299988,0.200012l0.200012,0.299988l0.200012,0.299988l0.299988,0.200012l0.299988,0.200012l0.200012,0.299988l0.200012,0.299988l0.299988,0.200012l0.299988,0.200012l0.200012,0.299988l0.200012,0.299988l0.299988,0.200012l0.299988,0.200012l0.200012,0.299988l1,0.299988l1,0.200012l0.200012,-7c0.200012,-4.666626 0.966675,-11.333313 2.299988,-20c1.333374,-8.666626 3.166687,-16.833313 5.5,-24.5c2.333374,-7.666626 7.333374,-19.5 15,-35.5c7.666687,-16 13.06665,-28.166656 16.200012,-36.5l4.799988,-12.5l0.200012,0l0.299988,0l0.299988,-0.200012l0.200012,-0.299988l0.200012,-0.299988l0.299988,-0.200012l0.5,-1.5l0.5,-1.5l2.700012,-6.5c1.866638,-4.333313 3.200012,-6.666656 4,-7c0.866638,-0.333313 1.533325,-1.233307 2,-2.700012c0.533325,-1.533295 1.133362,-2.399994 1.799988,-2.599976c0.666687,-0.133362 1,-0.700012 1,-1.700012c0,-1 2.733337,-1.666656 8.200012,-2c5.533325,-0.333313 8.733337,-0.100006 9.599976,0.700012c0.800049,0.866638 1.266663,1.400024 1.400024,1.599976z" stroke-width="0.5px" stroke="#0000ff" fill-rule="evenodd" fill="#0000ff" id="svg_8"/>
  <path d="m606,605l0.5,-1l0.299988,0.200012l0.200012,0.299988l0.200012,0.299988l0.299988,0.200012l0.299988,0.200012l0.200012,0.299988l0.200012,0.299988l0.299988,0.200012l0.299988,0.200012l0.200012,0.299988l0.200012,0.299988l0.299988,0.200012l0.299988,0.200012l0.200012,0.299988l0.200012,0.299988l0.299988,0.200012l4.299988,5.799988c2.800049,3.800049 4.266663,5.800049 4.400024,6l0.299988,0.200012l0.299988,0.200012l0.200012,0.299988l0.200012,0.299988l0.299988,0.200012l0.5,1l0.5,1l0.299988,0l0.200012,0l2.799988,6c1.800049,4 2.866699,6.333374 3.200012,7l0.5,1l0.5,1.5l0.5,1.5l0.299988,0l0.200012,0l0.200012,1l0.299988,1l3.5,5.5c2.333374,3.666687 4.733337,6.233337 7.200012,7.700012c2.533325,1.533325 5.133362,2.633362 7.799988,3.299988c2.666687,0.666687 7.166687,0.666687 13.5,0c6.333374,-0.666626 10.166687,-1.166626 11.5,-1.5l2,-0.5l1.5,-0.5l1.5,-0.5l1.5,-0.299988l1.5,-0.200012l-0.200012,1.5l-0.299988,1.5l-0.5,1l-0.5,1l-0.5,1l-0.5,1l-3,6c-2,4 -3.099976,6.166687 -3.299988,6.5l-0.200012,0.5l-0.200012,0c-0.199951,0 -0.399963,0.166687 -0.599976,0.5l-0.200012,0.5l-0.799988,0.5c-0.466675,0.333374 -0.799988,0.833374 -1,1.5l-0.200012,1l-1.5,0.200012c-1,0.200012 -1.666626,0.466675 -2,0.799988c-0.333313,0.333374 -3.166626,0.600037 -8.5,0.799988c-5.333313,0.133362 -9.93335,3.200012 -13.799988,9.200012c-3.799988,6 -6.799988,8.93335 -9,8.799988c-2.133362,-0.199951 -5.866638,0.866699 -11.200012,3.200012c-5.333313,2.333374 -8.166626,3.93335 -8.5,4.799988c-0.333313,0.800049 -3.166626,1.466736 -8.5,2c-5.333313,0.466736 -9.833313,0.266663 -13.5,-0.599976c-3.666626,-0.799988 -5.5,-1.533325 -5.5,-2.200012c0,-0.666626 -0.733276,-1.333313 -2.200012,-2c-1.533264,-0.666626 -2.733337,-1 -3.599976,-1l-1.200012,0l-0.200012,-1.5l-0.299988,-1.5l-0.299988,0.200012l-0.200012,0.299988l-2,0l-2,0l-44.5,-0.299988c-29.666656,-0.133362 -44.5,-0.533325 -44.5,-1.200012c0,-0.666626 -0.833313,-1 -2.5,-1l-2.5,0l0.200012,-1l0.299988,-1l0.299988,-0.200012l0.200012,-0.299988l-1,-0.299988l-1,-0.200012l0,-1l0,-1l1,-0.200012l1,-0.299988l-1.5,-0.5l-1.5,-0.5l1,-0.5l1,-0.5l0,-0.299988l0,-0.200012l0,-0.200012l0,-0.299988l1,-0.5c0.666687,-0.333313 2,-0.833313 4,-1.5c2,-0.666626 5.833344,-2.833313 11.5,-6.5c5.666687,-3.666626 10.56665,-7.93335 14.700012,-12.799988c4.200012,-4.799988 7.466675,-9.200012 9.799988,-13.200012c2.333374,-4 3.733337,-9.333313 4.200012,-16l0.799988,-10l1,0c0.666687,0 1.06665,0.666687 1.200012,2l0.299988,2l0.299988,-10.5l0.200012,-10.5l5,-0.799988c3.333374,-0.466675 12.166687,-0.366638 26.5,0.299988c14.333374,0.666687 23.666687,1.166687 28,1.5c4.333374,0.333374 6.900024,0.93335 7.700012,1.799988c0.866638,0.800049 1.466675,1.533386 1.799988,2.200012l0.5,1l0.299988,-1.5l0.200012,-1.5l1,0c0.666687,0 1.400024,-1.5 2.200012,-4.5l1.299988,-4.5l0.5,-1z" stroke-width="0.5px" stroke="#0000ff" fill-rule="evenodd" fill="#0000ff" id="svg_9"/>
  <path d="m470,438l0.5,1l0.299988,0.200012l0.200012,0.299988l0.200012,0.299988l0.299988,0.200012l0.299988,0.200012l0.200012,0.299988l0.200012,0.299988l0.299988,0.200012l0.299988,0.200012l0.200012,0.299988l0.200012,0.299988l0.299988,0.200012l0.299988,0.200012l0.200012,0.299988l0.200012,0.299988l0.299988,0.200012l0,1l0,1l-0.299988,-0.200012l-0.200012,-0.299988l-0.200012,-0.299988l-0.299988,-0.200012l-0.299988,-0.200012l-0.200012,-0.299988l-0.200012,-0.299988l-0.299988,-0.200012l-0.299988,-0.200012l-0.200012,-0.299988l-1,-0.5l-1,-0.5l-0.200012,-0.299988l-0.299988,-0.200012l-0.299988,-0.200012l-0.200012,-0.299988l-0.200012,-0.299988l-0.299988,-0.200012l-0.299988,-0.200012l-0.200012,-0.299988l-1,-0.5c-0.666656,-0.333313 -2.666656,-1.733307 -6,-4.200012c-3.333313,-2.533295 -5.06665,-4.133301 -5.200012,-4.799988c-0.199951,-0.666656 -1.399994,-1.666656 -3.599976,-3c-2.133362,-1.333313 -3.366669,-2.399963 -3.700012,-3.200012c-0.333313,-0.866638 -1.666656,-2.533295 -4,-5c-2.333313,-2.533295 -3.833313,-3.866638 -4.5,-4c-0.666656,-0.199951 -2,-1.466644 -4,-3.799988c-2,-2.333313 -5.333313,-6.666656 -10,-13c-4.666656,-6.333313 -9.266663,-13.600006 -13.799988,-21.799988c-4.466675,-8.133362 -8.366669,-17.033325 -11.700012,-26.700012c-3.333313,-9.666656 -5.166656,-18.166656 -5.5,-25.5c-0.333313,-7.333313 0.666687,-14.833313 3,-22.5c2.333344,-7.666656 5.333344,-14.333313 9,-20l5.5,-8.5l0.299988,-0.200012l0.200012,-0.299988l0.200012,-0.299988l0.299988,-0.200012l0.5,-1l0.5,-1l0.299988,-0.200012l0.200012,-0.299988l0.200012,-0.299988l0.299988,-0.200012l0.299988,-0.200012l0.200012,-0.299988l0.200012,-0.299988l0.299988,-0.200012l0.299988,-0.200012l0.200012,-0.299988l0.200012,-0.299988l0.299988,-0.200012l0.299988,-0.200012l0.200012,-0.299988l0.200012,-0.299988l0.299988,-0.200012l0,1l0,1l-0.5,1l-0.5,1l-0.5,1l-0.5,1l-1,4.5c-0.666656,3 -0.833313,8.5 -0.5,16.5c0.333344,8 1.166687,13.666687 2.5,17c1.333344,3.333344 2.166687,5.333344 2.5,6l0.5,1l0.5,1l0.5,1l0.5,1.5l0.5,1.5l0.299988,0.200012l0.200012,0.299988l0.200012,0.299988l0.299988,0.200012l0.299988,-0.200012l0.200012,-0.299988l0.200012,-0.299988l0.299988,-0.200012l0.5,-1.5l0.5,-1.5l0.299988,-0.200012l0.200012,-0.299988l0.200012,-0.299988l0.299988,-0.200012l6.5,-21.5c4.333344,-14.333313 6.5,-25.666656 6.5,-34c0,-8.333328 -1.5,-15.5 -4.5,-21.5c-3,-6 -6.733307,-11.599991 -11.200012,-16.800003c-4.533295,-5.133316 -3.966644,-6.199997 1.700012,-3.199997c5.666687,3 11.100037,6.400009 16.299988,10.199997c5.133362,3.866684 9.866699,8.466675 14.200012,13.800003c4.333344,5.333344 7.5,10.833344 9.5,16.5c2,5.666687 3,13.666687 3,24c0,10.333344 -1.833313,21.5 -5.5,33.5c-3.666656,12 -7.833313,22.833344 -12.5,32.5c-4.666656,9.666687 -7,18 -7,25c0,7 1.5,14.333344 4.5,22c3,7.666687 7.333344,16 13,25c5.666687,9 8.666687,13.833344 9,14.5z" stroke-width="0.5px" stroke="#0000ff" fill-rule="evenodd" fill="#0000ff" id="svg_10"/>
  <path d="m761,560l1,0l-0.200012,1l-0.299988,1l-0.5,1l-0.5,1l-0.299988,0.200012l-0.200012,0.299988l-0.200012,0.299988l-0.299988,0.200012l-0.5,1l-0.5,1l-6,11.5c-4,7.666687 -7.666626,16.833374 -11,27.5c-3.333313,10.666687 -5.666626,19.166687 -7,25.5c-1.333313,6.333374 -2.666626,15 -4,26c-1.333313,11 -3.5,21.5 -6.5,31.5c-3,10 -6.266663,18.93335 -9.799988,26.799988c-3.466675,7.800049 -7.933289,15.600037 -13.400024,23.400024c-5.533264,7.866638 -11.299988,14.966675 -17.299988,21.299988c-6,6.333374 -12.899963,12.233337 -20.700012,17.700012c-7.866638,5.533325 -12.133301,8.400024 -12.799988,8.599976l-1,0.200012l0.200012,-1c0.200012,-0.666626 0.400024,-1.333313 0.599976,-2c0.133362,-0.666626 -3.633301,-0.599976 -11.299988,0.200012l-11.5,1.299988l-0.5,0l-0.5,0l-0.200012,-0.299988l-0.299988,-0.200012l-0.299988,-0.200012l-0.200012,-0.299988l-0.200012,-0.299988l-0.299988,-0.200012l-0.299988,0.200012l-0.200012,0.299988l-2,0.299988l-2,0.200012l0.200012,-1l0.299988,-1l0.299988,0.200012l0.200012,0.299988l0.200012,0.299988l0.299988,0.200012l0.299988,-1l0.200012,-1l2.200012,-1c1.533325,-0.666626 2.400024,-1.06665 2.599976,-1.200012l0.200012,-0.299988l1.5,-0.5l1.5,-0.5l0.200012,-0.299988l0.299988,-0.200012l0.299988,-0.200012l0.200012,-0.299988l0.200012,-0.299988l0.299988,-0.200012l0.299988,-0.200012l0.200012,-0.299988l-4,0l-4,0l-1,0.5c-0.666626,0.333374 -1.333313,0.833374 -2,1.5c-0.666626,0.666687 -7,1.233337 -19,1.700012c-12,0.533325 -17.93335,0.466675 -17.799988,-0.200012c0.200012,-0.666626 -0.133362,-1.266663 -1,-1.799988c-0.799988,-0.466675 -2.200012,-0.700012 -4.200012,-0.700012l-3,0l-3.5,-0.299988l-3.5,-0.200012l0,-0.200012l0,-0.299988l1.5,-0.5l1.5,-0.5l1.5,-0.5l1.5,-0.5l1,-0.5l1,-0.5l1.5,-0.299988c1,-0.133362 1.5,-0.533325 1.5,-1.200012c0,-0.666626 1.5,-1.733276 4.5,-3.200012c3,-1.533264 7.666687,-4.633301 14,-9.299988c6.333374,-4.666626 11.43335,-9.233276 15.299988,-13.700012c3.800049,-4.533264 7.533386,-9.633301 11.200012,-15.299988c3.666687,-5.666626 8.333374,-11.166626 14,-16.5c5.666687,-5.333313 11.06665,-10.733276 16.200012,-16.200012c5.200012,-5.533264 8.966675,-10.06665 11.299988,-13.599976l3.5,-5.200012l0.5,-0.200012c0.333374,-0.199951 0.666687,-0.733337 1,-1.599976l0.5,-1.200012l0.5,-0.200012c0.333374,-0.199951 0.5,-0.399963 0.5,-0.599976l0,-0.200012l0.200012,-0.5c0.200012,-0.333313 1.299988,-2.5 3.299988,-6.5l3,-6l0.5,-1l0.5,-1l0.5,-1l0.5,-1l0.299988,-1.5l0.200012,-1.5l-1.5,0.200012l-1.5,0.299988l-1.5,0.5l-1.5,0.5l-2,0.5c-1.333313,0.333374 -5.166626,0.833374 -11.5,1.5c-6.333313,0.666687 -10.833313,0.666687 -13.5,0c-2.666626,-0.666626 -5.266663,-1.766663 -7.799988,-3.299988c-2.466675,-1.466675 -4.866638,-4.033325 -7.200012,-7.700012l-3.5,-5.5l-0.299988,-1l-0.200012,-1l0.200012,-1l0.299988,-1l0.299988,-0.200012l0.200012,-0.299988l0.200012,-0.299988l0.299988,-0.200012l0.299988,-1.5l0.200012,-1.5l16.5,-1.200012c11,-0.866638 18.5,-0.966614 22.5,-0.299988c4,0.666687 10.333374,0.833374 19,0.5c8.666687,-0.333313 14.600037,-1.733276 17.799988,-4.200012c3.133362,-2.533264 6.466736,-6.06665 10,-10.599976c3.466736,-4.466675 7.800049,-10.466675 13,-18c5.133362,-7.466675 7.800049,-11.700012 8,-12.700012l0.200012,-1.5l0.200012,0l0.299988,0l0.299988,-0.200012l0.200012,-0.299988l0.200012,-0.299988l0.299988,-0.200012l0.5,-1l0.5,-1l0.299988,-0.200012l0.200012,-0.299988l0.200012,-0.299988l0.299988,-0.200012l0.299988,-0.200012l0.200012,-0.299988l0.200012,-0.299988l0.299988,-0.200012l0.299988,-0.200012l0.200012,-0.299988l0.200012,-0.299988l0.299988,-0.200012l0.299988,-0.200012l0.200012,-0.299988l5.200012,-6.299988c3.533325,-4.133362 5.400024,-6.266663 5.599976,-6.400024l0.200012,-0.299988l0.200012,-0.299988l0.299988,-0.200012l0.299988,-0.200012l0.200012,-0.299988l0.200012,-0.299988l0.299988,-0.200012l0.299988,-0.200012l0.200012,-0.299988l0.200012,-0.299988l0.299988,-0.200012l0.5,-1l0.5,-1l0.299988,-1l0.200012,-1l1,0z" stroke-width="0.5px" stroke="#0000ff" fill-rule="evenodd" fill="#0000ff" id="svg_11"/>
  <path d="m442.5,474l0,-4l0.299988,0.200012l0.200012,0.299988l0.200012,0.299988l0.299988,0.200012l0.5,1l0.5,1l0.5,1l0.5,1l0.5,1l0.5,1l0.299988,0.200012l0.200012,0.299988l6,10.5c4,7 7.333344,12.333344 10,16c2.666687,3.666687 6,7.166687 10,10.5c4,3.333374 8.5,6.333374 13.5,9c5,2.666687 7.833344,4.166687 8.5,4.5l1,0.5l1,0.5l1,0.5l1.5,0.5l1.5,0.5l0.5,0l0.5,0l0.200012,-0.299988l0.299988,-0.200012l0,-1.5l0,-1.5l-0.5,-1l-0.5,-1l-0.5,-1l-0.5,-1l-0.5,-1c-0.333313,-0.666626 -2.166656,-4.833313 -5.5,-12.5l-5,-11.5l-0.299988,-0.200012l-0.200012,-0.299988l-0.200012,-0.299988l-0.299988,-0.200012l-0.5,-1l-0.5,-1l-0.5,-1l-0.5,-1l-0.299988,-1l-0.200012,-1l1,0.200012l1,0.299988l1,0.5l1,0.5l0.200012,0.299988l0.299988,0.200012l0.299988,0.200012l0.200012,0.299988l0.200012,0.299988l0.299988,0.200012l0.299988,0.200012l0.200012,0.299988l1,0.5l1,0.5l18.5,14.5c12.333374,9.666687 22.900024,18.266724 31.700012,25.799988c8.866638,7.466736 13.400024,11.266663 13.599976,11.400024l0.200012,0.299988l0.200012,0.299988l0.299988,0.200012l0.299988,0.5l0.200012,0.5l0.200012,1.5l0.299988,1.5l0.5,1l0.5,1l0.299988,0.200012l0.200012,0.299988l-1,0.5l-1,0.5l-1,0l-1,0l-0.200012,-0.299988l-0.299988,-0.200012l-0.299988,0.200012l-0.200012,0.299988l-1,0.5c-0.666626,0.333374 -6.666626,1 -18,2l-17,1.5l-1,0.299988l-1,0.200012l1.200012,6.5c0.866638,4.333374 2.966675,12.333374 6.299988,24c3.333374,11.666687 5.100037,18.166687 5.299988,19.5l0.200012,2l-0.200012,10.5l-0.299988,10.5l-0.5,-1.5l-0.5,-1.5l-0.299988,0l-0.200012,0l-0.200012,-0.5l-0.299988,-0.5l-0.299988,0l-0.200012,0l-0.200012,-1l-0.299988,-1l-0.5,-1.5c-0.333313,-1 -0.733276,-2.333313 -1.200012,-4l-0.799988,-2.5l-0.200012,-0.5c-0.199951,-0.333313 -0.399963,-0.5 -0.599976,-0.5l-0.200012,0l-0.200012,-1.5l-0.299988,-1.5l-0.299988,-0.200012l-0.200012,-0.299988l-0.200012,-0.299988l-0.299988,-0.200012l-0.5,-1c-0.333313,-0.666626 -1.333313,-2.5 -3,-5.5c-1.666626,-3 -7.166656,-10.5 -16.5,-22.5c-9.333313,-12 -17.5,-23 -24.5,-33c-7,-10 -12.666656,-19.333313 -17,-28c-4.333313,-8.666626 -8.5,-18.5 -12.5,-29.5l-6,-16.5l0,-4z" stroke-width="0.5px" stroke="#0000ff" fill-rule="evenodd" fill="#0000ff" id="svg_12"/>
  <path d="m433,540l-0.5,1l-0.5,1l-0.5,1l-0.5,1l-0.5,1l-0.5,1l-0.5,1l-7,24.5c-4.666656,16.333374 -7,32.5 -7,48.5c0,16 2,27.5 6,34.5c4,7 6.100037,10.833374 6.299988,11.5l0.200012,1l-0.200012,0l-0.299988,0l0,1l0,1l0.299988,0.200012l0.200012,0.299988l0.200012,0.299988l0.299988,0.200012l0.5,1l0.5,1l0.299988,0.200012l0.200012,0.299988l0.200012,0.299988l0.299988,0.200012l0.5,1l0.5,1l0.299988,0.200012l0.200012,0.299988l9,6c6,4 10.833344,6.5 14.5,7.5c3.666687,1 8.166687,1.5 13.5,1.5c5.333344,0 8.833344,-0.099976 10.5,-0.299988l2.5,-0.200012l0,0.200012l0,0.299988l-1,0.5l-1,0.5l1.5,0.5l1.5,0.5l-1,0.299988l-1,0.200012l0,1l0,1l1,0.200012l1,0.299988l-0.200012,0.299988l-0.299988,0.200012l-0.299988,1l-0.200012,1l2.5,0c1.666687,0 2.5,0.333374 2.5,1c0,0.666687 14.833344,1.06665 44.5,1.200012l44.5,0.299988l2,0l2,0l0.200012,-0.299988l0.299988,-0.200012l0.299988,1.5l0.200012,1.5l-2,0.200012l-2,0.299988l-79.5,0c-53,0 -80.5,0 -82.5,0c-2,0 -4.266663,-0.43335 -6.799988,-1.299988l-3.700012,-1.200012l-0.299988,-0.200012l-0.200012,-0.299988l-0.200012,-0.299988l-0.299988,-0.200012l-0.299988,-0.200012l-0.200012,-0.299988l-0.200012,-0.299988l-0.299988,-0.200012l-0.299988,-0.200012l-0.200012,-0.299988l-0.200012,-0.299988l-0.299988,-0.200012l-0.299988,-0.200012c-0.133362,-0.199951 -0.366669,-0.399963 -0.700012,-0.599976l-0.5,-0.200012l-0.200012,-0.5c-0.199951,-0.333313 -0.399994,-0.5 -0.599976,-0.5l-0.200012,0l-0.200012,-0.5c-0.199951,-0.333313 -0.466644,-0.833313 -0.799988,-1.5c-0.333313,-0.666626 -2,-5.833313 -5,-15.5c-3,-9.666626 -4.833313,-19.166626 -5.5,-28.5c-0.666656,-9.333313 -0.333313,-17.833313 1,-25.5c1.333344,-7.666626 4.100037,-17 8.299988,-28l6.200012,-16.5l0.5,-0.200012l0.5,-0.299988l0.200012,-0.299988l0.299988,-0.200012l0.5,-1l0.5,-1l0.5,-1c0.333344,-0.666626 0.733337,-1.833313 1.200012,-3.5l0.799988,-2.5l0.5,-0.200012l0.5,-0.299988l0.200012,-0.299988l0.299988,-0.200012l0.5,-1l0.5,-1l0.299988,-0.200012l0.200012,-0.299988l0.200012,-0.299988l0.299988,-0.200012l0.299988,-0.200012l0.200012,-0.299988l0.200012,-0.299988l0.299988,-0.200012l0.5,-1l0.5,-1l0.5,-1c0.333344,-0.666626 2.5,-3.666626 6.5,-9l6,-8l0.299988,-0.200012l0.200012,-0.299988l0.200012,-0.299988l0.299988,-0.200012l0.5,-1l0.5,-1l0.5,-1l0.5,-1l0.299988,-0.200012l0.200012,-0.299988l1,-0.299988c0.666687,-0.133362 1,-0.533325 1,-1.200012c0,-0.666626 0.333344,-1 1,-1c0.666687,0 0.93335,0.333374 0.799988,1c-0.199951,0.666687 -0.466644,1.333374 -0.799988,2z" stroke-width="0.5px" stroke="#0000ff" fill-rule="evenodd" fill="#0000ff" id="svg_14"/>
  <path d="m360.5,319l0,-1l0.299988,0.200012l0.200012,0.299988l0.200012,0.299988l0.299988,0.200012l0.5,1l0.5,1l0.299988,0.200012l0.200012,0.299988l0.200012,0.299988l0.299988,0.200012l0.5,1l0.5,1l0.299988,0.200012l0.200012,0.299988l0.200012,0.299988l0.299988,0.200012l10.5,18c7,12 13,24 18,36c5,12 9,22.833344 12,32.5c3,9.666687 4.666687,15 5,16l0.5,1.5l0.5,2l0.5,2l0.299988,0l0.200012,0l2.799988,22.5c1.800049,15 2.533356,28.666687 2.200012,41c-0.333313,12.333344 -1.5,24.5 -3.5,36.5c-2,12 -3.333313,19.333374 -4,22c-0.666656,2.666687 -1.166656,4.833374 -1.5,6.5l-0.5,2.5l-0.299988,3l-0.200012,3l-0.799988,2.5c-0.466675,1.666687 -0.866669,2.833374 -1.200012,3.5l-0.5,1l-0.5,1l-0.5,1l-0.299988,0.200012l-0.200012,0.299988l-0.5,0.299988l-0.5,0.200012l-0.200012,-1.5c-0.199951,-1 -0.533295,-1.56665 -1,-1.700012c-0.533295,-0.199951 -0.966644,-0.533264 -1.299988,-1c-0.333313,-0.533264 -3.333313,-1.133301 -9,-1.799988c-5.666656,-0.666626 -8.56665,-1.5 -8.700012,-2.5c-0.199951,-1 -0.533295,-1.233276 -1,-0.700012c-0.533295,0.466736 -1.06665,0.93335 -1.599976,1.400024c-0.466675,0.533325 -1.200012,-2.700012 -2.200012,-9.700012c-1,-7 -1.93335,-10.5 -2.799988,-10.5l-1.200012,0l0.200012,-1c0.199982,-0.666626 1.633331,-6.166626 4.299988,-16.5c2.666687,-10.333313 4.833344,-20.666626 6.5,-31c1.666687,-10.333313 2.666687,-26 3,-47c0.333344,-21 0.166687,-35.333313 -0.5,-43c-0.666656,-7.666656 -2.166656,-17.333313 -4.5,-29c-2.333313,-11.666656 -6.166656,-24.333313 -11.5,-38l-8,-20.5l-0.5,-1l-0.5,-1l-0.5,-1l-0.5,-1l-0.5,-1l-0.5,-1l0,-1z" stroke-width="0.5px" stroke="#0000ff" fill-rule="evenodd" fill="#0000ff" id="svg_15"/>
  <path d="m402.799988,578.5l0.200012,1.5l-6.200012,16.5c-4.199951,11 -6.966644,20.333374 -8.299988,28c-1.333313,7.666687 -1.666656,16.166687 -1,25.5c0.666687,9.333374 2.5,18.833374 5.5,28.5c3,9.666687 4.666687,14.833374 5,15.5c0.333344,0.666687 0.600037,1.166687 0.799988,1.5l0.200012,0.5l0,0.200012c0,0.200012 0.166687,0.400024 0.5,0.599976l0.5,0.200012l0.200012,1l0.299988,1l0.5,1.5l0.5,1.5l0.5,1l0.5,1l7.5,11c5,7.333374 11.93335,15.400024 20.799988,24.200012c8.800049,8.866638 17.700012,15.966675 26.700012,21.299988c9,5.333374 16,9.166687 21,11.5c5,2.333374 11.833344,4.5 20.5,6.5c8.666687,2 20,2.833374 34,2.5c14,-0.333313 23,-1 27,-2c4,-1 6.5,-1.599976 7.5,-1.799988l1.5,-0.200012l3.5,0.200012l3.5,0.299988l3,0c2,0 3.400024,0.233337 4.200012,0.700012c0.866638,0.533325 1.200012,1.133362 1,1.799988c-0.133362,0.666687 5.799988,0.733337 17.799988,0.200012c12,-0.466675 18.333374,-1.033325 19,-1.700012c0.666687,-0.666626 1.333374,-1.166626 2,-1.5l1,-0.5l4,0l4,0l-0.200012,0.299988l-0.299988,0.200012l-0.299988,0.200012l-0.200012,0.299988l-0.200012,0.299988l-0.299988,0.200012l-0.299988,0.200012l-0.200012,0.299988l-1.5,0.5l-1.5,0.5l-0.200012,0.299988c-0.199951,0.133362 -1.06665,0.533386 -2.599976,1.200012l-2.200012,1l-0.200012,1l-0.299988,1l-0.299988,-0.200012l-0.200012,-0.299988l-0.200012,-0.299988l-0.299988,-0.200012l-0.299988,1l-0.200012,1l2,-0.200012l2,-0.299988l0.200012,-0.299988l0.299988,-0.200012l0.299988,0.200012l0.200012,0.299988l0.200012,0.299988l0.299988,0.200012l0.299988,0.200012l0.200012,0.299988l0.5,0l0.5,0l7.5,-1c5,-0.666626 9.166687,-1.099976 12.5,-1.299988l5,-0.200012l0,1l0,1l-1,0.200012l-1,0.299988l0,0.299988l0,0.200012l-0.200012,0l-0.299988,0l-0.299988,0.5l-0.200012,0.5l-0.200012,0l-0.299988,0l-0.299988,0.200012l-0.200012,0.299988l-1,0.5l-1,0.5l-0.200012,0.299988l-0.299988,0.200012l-0.299988,0.200012c-0.133362,0.200012 -2.033325,1.133362 -5.700012,2.799988c-3.666626,1.666687 -10,4.166687 -19,7.5c-9,3.333374 -19,6 -30,8c-11,2 -22.5,3.166687 -34.5,3.5c-12,0.333374 -23.166626,-0.166626 -33.5,-1.5c-10.333313,-1.333313 -20.166656,-3.333313 -29.5,-6c-9.333313,-2.666626 -17.833313,-6 -25.5,-10c-7.666656,-4 -14.5,-8 -20.5,-12c-6,-4 -12.06665,-8.766663 -18.200012,-14.299988c-6.199951,-5.466675 -10.533295,-9.366638 -13,-11.700012c-2.533295,-2.333313 -5.533295,-5.833313 -9,-10.5c-3.533295,-4.666626 -8.799988,-12.666626 -15.799988,-24c-7,-11.333313 -12.333313,-22.166626 -16,-32.5c-3.666656,-10.333313 -6.333313,-19.666626 -8,-28c-1.666656,-8.333313 -2.666656,-19.166626 -3,-32.5c-0.333313,-13.333313 -0.166656,-22.833313 0.5,-28.5c0.666687,-5.666626 2.166687,-13.833313 4.5,-24.5l3.5,-16l0.5,-3c0.333344,-2 0.600037,-3.166626 0.799988,-3.5l0.200012,-0.5l1.200012,0c0.866638,0 1.799988,3.5 2.799988,10.5c1,7 1.733337,10.233337 2.200012,9.700012c0.533325,-0.466675 1.066681,-0.933289 1.599976,-1.400024c0.466705,-0.533264 0.800049,-0.299988 1,0.700012c0.133362,1 3.033356,1.833374 8.700012,2.5c5.666687,0.666687 8.666687,1.266724 9,1.799988c0.333344,0.466736 0.766693,0.800049 1.299988,1c0.466705,0.133362 0.800049,0.700012 1,1.700012z" stroke-width="0.5px" stroke="#0000ff" fill-rule="evenodd" fill="#0000ff" id="svg_16"/>
  <path d="m713,455l1,0l-0.200012,1l-0.299988,1l-0.299988,0.200012l-0.200012,0.299988l-0.200012,0.299988l-0.299988,0.200012l-0.5,1.5l-0.5,1.5l-0.5,1l-0.5,1l-6.5,16c-4.333313,10.666687 -7.666626,19.833344 -10,27.5c-2.333313,7.666687 -3.833313,16.166687 -4.5,25.5c-0.666626,9.333374 -0.333313,17.333374 1,24c1.333374,6.666687 3.100037,11.06665 5.299988,13.200012c2.133362,2.200012 5.366699,3.299988 9.700012,3.299988c4.333374,0 7.833374,-0.833313 10.5,-2.5c2.666687,-1.666626 5.600037,-5.266663 8.799988,-10.799988c3.133362,-5.466675 6.033386,-13.366638 8.700012,-23.700012c2.666687,-10.333313 4.166687,-17.166626 4.5,-20.5l0.5,-5l0.5,-1l0.5,-1l0.5,1l0.5,1l0.5,1.5l0.5,1.5l0.5,2l0.5,2l1.5,9.5c1,6.333374 1.333374,14.5 1,24.5c-0.333313,10 -1,16.833374 -2,20.5c-1,3.666687 -1.666626,6 -2,7l-0.5,1.5l-0.5,1l-0.5,1l-0.299988,2l-0.200012,2l-0.200012,1.5c-0.199951,1 -2.866638,5.233337 -8,12.700012c-5.199951,7.533325 -9.533264,13.533325 -13,18c-3.533264,4.533325 -6.866638,8.066711 -10,10.599976c-3.199951,2.466736 -9.133301,3.866699 -17.799988,4.200012c-8.666626,0.333374 -15,0.166687 -19,-0.5c-4,-0.666626 -11.5,-0.56665 -22.5,0.299988l-16.5,1.200012l-0.200012,1.5l-0.299988,1.5l-0.299988,0.200012l-0.200012,0.299988l-0.200012,0.299988l-0.299988,0.200012l-0.299988,1l-0.200012,1l-0.200012,0l-0.299988,0l-0.5,-1.5l-0.5,-1.5l-0.5,-1c-0.333313,-0.666626 -1.399963,-3 -3.200012,-7l-2.799988,-6l0.200012,-2l0.299988,-2l0.299988,-1l0.200012,-1l1,-0.200012l1,-0.299988l6.5,-1.5c4.333374,-1 7.666687,-1.5 10,-1.5l3.5,0l0.200012,0.299988l0.299988,0.200012l0.299988,0.200012l0.200012,0.299988l0.200012,0.299988l0.299988,0.200012l0.299988,-0.200012l0.200012,-0.299988l0.200012,-0.299988l0.299988,-0.200012l0.5,-1l0.5,-1l0,-0.5l0,-0.5l-0.299988,-0.200012l-0.200012,-0.299988l-0.200012,-0.299988l-0.299988,-0.200012l-0.5,-1c-0.333313,-0.666626 -0.93335,-1.166626 -1.799988,-1.5c-0.799988,-0.333313 -1.700012,-2.43335 -2.700012,-6.299988c-1,-3.799988 -1.666626,-8.133362 -2,-13l-0.5,-7.200012l0,-0.200012l0,-0.299988l0.200012,-0.299988l0.299988,-0.200012l0.299988,-0.200012l0.200012,-0.299988l0.200012,-0.299988l0.299988,-0.200012l0.299988,0.200012l0.200012,0.299988l0.200012,0.299988l0.299988,0.200012l0.5,-1l0.5,-1l0.299988,-0.200012l0.200012,-0.299988l1,-0.299988l1,-0.200012l1.799988,10.5c1.133362,7 3.133362,12.100037 6,15.299988c2.800049,3.133362 6.366699,5.700012 10.700012,7.700012c4.333374,2 9.833374,2.833374 16.5,2.5c6.666687,-0.333313 12.600037,-1.93335 17.799988,-4.799988c5.133362,-2.799988 9.700012,-6.200012 13.700012,-10.200012c4,-4 7,-7.333313 9,-10c2,-2.666626 3.166687,-4.5 3.5,-5.5l0.5,-1.5l0.299988,-0.200012l0.200012,-0.299988l0.200012,-0.299988l0.299988,-0.200012l0.299988,-0.200012l0.200012,-0.299988l0.200012,-0.299988l0.299988,-0.200012l0.299988,-0.200012l0.200012,-0.299988l0.200012,-0.299988l0.299988,-0.200012l0.5,-1l0.5,-1l0.299988,-1.5l0.200012,-1.5l-1,0.200012l-1,0.299988l-0.200012,0.299988l-0.299988,0.200012l-0.299988,0.200012l-0.200012,0.299988l-0.200012,0.299988l-0.299988,0.200012l-0.299988,0.200012l-0.200012,0.299988l-0.200012,0.299988l-0.299988,0.200012l-0.299988,0.200012l-0.200012,0.299988l-0.200012,0.299988l-0.299988,0.200012l-0.299988,0.200012l-0.200012,0.299988l-0.200012,0.299988l-0.299988,0.200012l-0.299988,0.200012c-0.133362,0.200012 -2.366638,1.299988 -6.700012,3.299988c-4.333313,2 -9,3 -14,3c-5,0 -8.833313,-0.833313 -11.5,-2.5c-2.666626,-1.666626 -4.93335,-3.733276 -6.799988,-6.200012c-1.799988,-2.533264 -3.700012,-7.299988 -5.700012,-14.299988l-3,-10.5l-0.5,-1.5l-0.5,-1.5l-0.5,2l-0.5,2l-0.299988,0.200012l-0.200012,0.299988l-0.200012,0.299988l-0.299988,0.200012l-0.299988,0.200012l-0.200012,0.299988l-0.200012,0.299988l-0.299988,0.200012l-2,4c-1.333313,2.666687 -2.166626,4.333374 -2.5,5l-0.5,1l-0.299988,0.200012l-0.200012,0.299988l-0.200012,0.299988l-0.299988,0.200012l-0.299988,0.200012l-0.200012,0.299988l-1,0.5l-1,0.5l-2,0l-2,0l-1,-0.299988l-1,-0.200012l-0.200012,-1l-0.299988,-1l-0.299988,-1l-0.200012,-1l0.200012,-2.5l0.299988,-2.5l0.299988,-0.200012l0.200012,-0.299988l0.200012,-0.299988l0.299988,-0.200012l0.299988,-0.200012l0.200012,-0.299988l0.200012,-0.299988l0.299988,-0.200012l0.5,-3c0.333374,-2 1.266724,-3.5 2.799988,-4.5c1.466736,-1 2.466736,-3.166626 3,-6.5c0.466736,-3.333313 0.93335,-5.599976 1.400024,-6.799988c0.533325,-1.133362 1.133362,-3.133362 1.799988,-6l1,-4.200012l0.200012,-1.5l0.299988,-1.5l0.5,-1.5l0.5,-1.5l0.299988,-0.200012l0.200012,-0.299988l0.200012,-0.299988l0.299988,-0.200012l0.299988,-0.200012l0.200012,-0.299988l0.200012,-0.299988l0.299988,-0.200012l0.5,-1c0.333374,-0.666626 1,-2 2,-4c1,-2 3.666687,-6.333313 8,-13c4.333374,-6.666656 9.666687,-14.333313 16,-23l9.5,-13l0.299988,-0.200012l0.200012,-0.299988l0.200012,-0.299988l0.299988,-0.200012l0.5,-1l0.5,-1l0.5,-1l0.5,-1l0.299988,-1l0.200012,-1l1,0zm-69.799988,146.799988c-0.133362,-0.199951 -0.133362,-0.399963 0,-0.599976c0.200012,-0.133362 0.299988,-0.033325 0.299988,0.299988c0,0.333374 -0.099976,0.43335 -0.299988,0.299988z" stroke-width="0.5px" stroke="#0000ff" fill-rule="evenodd" fill="#0000ff" id="svg_17"/>
  <path d="m648.799988,546.799988l0.200012,-0.299988l1,-0.299988l1,-0.200012l0.200012,1l0.299988,1l1,4c0.666687,2.666687 1.166687,4.5 1.5,5.5l0.5,1.5l0.5,1.5l0.5,1.5l0.299988,0l0.200012,0l0.200012,1l0.299988,1l0.299988,1l0.200012,1l1,0.200012l1,0.299988l2,0l2,0l1,-0.5l1,-0.5l0.200012,-0.299988l0.299988,-0.200012l0.299988,-0.200012l0.200012,-0.299988l0.200012,-0.299988l0.299988,-0.200012l0.5,-1c0.333374,-0.666626 1.166687,-2.333313 2.5,-5l2,-4l0.299988,-0.200012l0.200012,-0.299988l0.200012,-0.299988l0.299988,-0.200012l0.299988,-0.200012l0.200012,-0.299988l0.200012,-0.299988l0.299988,-0.200012l0.5,-2l0.5,-2l0.5,1.5l0.5,1.5l3,10.5c2,7 3.900024,11.766724 5.700012,14.299988c1.866638,2.466736 4.133362,4.533386 6.799988,6.200012c2.666687,1.666687 6.5,2.5 11.5,2.5c5,0 9.666687,-1 14,-3c4.333374,-2 6.56665,-3.099976 6.700012,-3.299988l0.299988,-0.200012l0.299988,-0.200012l0.200012,-0.299988l0.200012,-0.299988l0.299988,-0.200012l0.299988,-0.200012l0.200012,-0.299988l0.200012,-0.299988l0.299988,-0.200012l0.299988,-0.200012l0.200012,-0.299988l0.200012,-0.299988l0.299988,-0.200012l0.299988,-0.200012l0.200012,-0.299988l0.200012,-0.299988l0.299988,-0.200012l0.299988,-0.200012l0.200012,-0.299988l1,-0.299988l1,-0.200012l-0.200012,1.5l-0.299988,1.5l-0.5,1l-0.5,1l-0.299988,0.200012l-0.200012,0.299988l-0.200012,0.299988l-0.299988,0.200012l-0.299988,0.200012l-0.200012,0.299988l-0.200012,0.299988l-0.299988,0.200012l-0.299988,0.200012l-0.200012,0.299988l-0.200012,0.299988l-0.299988,0.200012l-0.5,1.5c-0.333313,1 -1.5,2.833374 -3.5,5.5c-2,2.666687 -5,6 -9,10c-4,4 -8.56665,7.400024 -13.700012,10.200012c-5.199951,2.866638 -11.133301,4.466675 -17.799988,4.799988c-6.666626,0.333374 -12.166626,-0.5 -16.5,-2.5c-4.333313,-2 -7.899963,-4.56665 -10.700012,-7.700012c-2.866638,-3.199951 -4.866638,-8.299988 -6,-15.299988l-1.799988,-10.5l0.200012,-8c0.200012,-5.333313 0.466675,-9.333313 0.799988,-12l0.5,-4l0.5,-3l0.5,-3l0.299988,-0.200012z" stroke-width="0.5px" stroke="#0000ff" fill-rule="evenodd" fill="#0000ff" id="svg_18"/>
  <path d="m523.5,617.799988l0.5,0.200012l0,0.200012c0,0.200012 0.166687,0.400024 0.5,0.599976l0.5,0.200012l0.799988,2.5c0.466736,1.666687 0.866699,3 1.200012,4l0.5,1.5l0.299988,1l0.200012,1l0,0.200012c0,0.200012 0.166687,0.400024 0.5,0.599976l0.5,0.200012l-1.200012,9.5c-0.866638,6.333374 -2.466614,11.5 -4.799988,15.5c-2.333313,4 -5.599976,8.400024 -9.799988,13.200012c-4.133362,4.866638 -9.033325,9.133362 -14.700012,12.799988c-5.666656,3.666687 -9.5,5.833374 -11.5,6.5c-2,0.666687 -3.333313,1.166687 -4,1.5l-1,0.5l0,0.299988l0,0.200012l-2.5,0.200012c-1.666656,0.200012 -5.166656,0.299988 -10.5,0.299988c-5.333313,0 -9.833313,-0.5 -13.5,-1.5c-3.666656,-1 -8.5,-3.5 -14.5,-7.5l-9,-6l-0.200012,-0.299988l-0.299988,-0.200012l-0.5,-1l-0.5,-1l-0.299988,-0.200012l-0.200012,-0.299988l-0.200012,-0.299988l-0.299988,-0.200012l-0.5,-1l-0.5,-1l-0.299988,-0.200012l-0.200012,-0.299988l-0.200012,-0.299988l-0.299988,-0.200012l0,-1l0,-1l0.299988,0l0.200012,0l0.200012,0l0.299988,0l0.299988,0.200012l0.200012,0.299988l0.200012,0.299988l0.299988,0.200012l0.299988,0.200012l0.200012,0.299988l1,0.5l1,0.5l0.200012,0.299988l0.299988,0.200012l0.299988,0.200012l0.200012,0.299988l0.200012,0.299988l0.299988,0.200012l0.299988,0.200012l0.200012,0.299988l0.200012,0.299988l0.299988,0.200012l0.299988,1c0.133362,0.666687 2.366699,1.93335 6.700012,3.799988c4.333344,1.800049 9.166687,2.866699 14.5,3.200012c5.333344,0.333374 9.5,-0.166626 12.5,-1.5c3,-1.333313 5.899994,-3.43335 8.700012,-6.299988c2.866638,-2.799988 5.633331,-7.366638 8.299988,-13.700012c2.666687,-6.333313 4.100037,-14 4.299988,-23l0.200012,-13.5l1,-1.200012c0.666687,-0.866638 5.266693,-1.533264 13.799988,-2c8.466736,-0.533264 12.93335,-1.06665 13.400024,-1.599976c0.533325,-0.466675 1.466675,-0.533325 2.799988,-0.200012c1.333374,0.333374 2.166687,0.600037 2.5,0.799988z" stroke-width="0.5px" stroke="#0000ff" fill-rule="evenodd" fill="#0000ff" id="svg_19"/>
  <path d="m730,385.200012l1,-0.200012l0,1l0,1l-1,0l-1,0l-0.200012,1l-0.299988,1l-0.299988,0.200012l-0.200012,0.299988l-0.200012,0.299988l-0.299988,0.200012l-0.5,1l-0.5,1l-14,23c-9.333313,15.333344 -17.5,30.5 -24.5,45.5c-7,15 -11.833313,27.5 -14.5,37.5c-2.666626,10 -4.166626,16.166687 -4.5,18.5l-0.5,3.5l0,2l0,2l0.299988,0l0.200012,0l-1,4.200012c-0.666626,2.866638 -1.266663,4.866638 -1.799988,6c-0.466675,1.200012 -0.933289,3.466675 -1.400024,6.799988c-0.533264,3.333374 -1.533264,5.5 -3,6.5c-1.533264,1 -2.466614,2.5 -2.799988,4.5l-0.5,3l-0.299988,0.200012l-0.200012,0.299988l-0.200012,0.299988l-0.299988,0.200012l-0.299988,0.200012l-0.200012,0.299988l-0.200012,0.299988l-0.299988,0.200012l-0.299988,2.5l-0.200012,2.5l-0.200012,0l-0.299988,0l-0.5,-1.5l-0.5,-1.5l-0.5,-1.5c-0.333313,-1 -0.833313,-2.833313 -1.5,-5.5l-1,-4l-0.299988,-1l-0.200012,-1l-1,0.200012l-1,0.299988l-0.200012,0.299988l-0.299988,0.200012l-0.5,3l-0.5,3l-0.5,4c-0.333313,2.666687 -0.599976,6.666687 -0.799988,12l-0.200012,8l-1,0.200012l-1,0.299988l-0.200012,0.299988l-0.299988,0.200012l-0.5,1l-0.5,1l-0.299988,-0.200012l-0.200012,-0.299988l-0.200012,-0.299988l-0.299988,-0.200012l-0.299988,0.200012l-0.200012,0.299988l-0.200012,0.299988l-0.299988,0.200012l-0.299988,0.200012l-0.200012,0.299988l0,0.299988l0,0.200012l-0.200012,0l-0.299988,0l-0.5,-6c-0.333313,-4 -0.06665,-10.333313 0.799988,-19l1.200012,-13l0,-0.5l0,-0.5l0,-0.5l0,-0.5l0.200012,-3c0.200012,-2 2.633362,-10 7.299988,-24c4.666687,-14 9.333374,-25.5 14,-34.5c4.666687,-9 10.5,-19 17.5,-30c7,-11 11.5,-17.833313 13.5,-20.5c2,-2.666656 7.666687,-9.833313 17,-21.5l14,-17.5l0.299988,-0.200012l0.200012,-0.299988l0.200012,-0.299988l0.299988,-0.200012l0.299988,-0.200012l0.200012,-0.299988l0.200012,-0.299988l0.299988,-0.200012l0.299988,-0.200012l0.200012,-0.299988l0.200012,-0.299988l0.299988,-0.200012l0.299988,-0.200012l0.200012,-0.299988l0.200012,-0.299988l0.299988,-0.200012l0.299988,-0.200012l0.200012,-0.299988l1,-0.299988z" stroke-width="0.5px" stroke="#0000ff" fill-rule="evenodd" fill="#0000ff" id="svg_20"/>
 </g>
</svg>